Screen Shots:
 
http://img822.imageshack.us/img822/8134/44255111.jpg
 
http://img809.imageshack.us/img809/8978/60981506.jpg
 
http://img822.imageshack.us/img822/8441/95552920.jpg
 
http://img813.imageshack.us/img813/2314/95601447.jpg


Media info:

General

Format                           : Matroska
File size                        : 339 MiB
Duration                         : 23mn 36s
Overall bit rate                 : 2 008 Kbps
Encoded date                     : UTC 2009-12-30 08:43:43
Writing application              : mkvmerge v2.9.7 ('Tenderness') built on Jul  1 2009 18:43:35
Writing library                  : libebml v0.7.7 + libmatroska v0.8.1

Video
ID                               : 1
Format                           : AVC
Format/Info                      : Advanced Video Codec
Format profile                   : High@L3.0
Format settings, CABAC           : Yes
Format settings, ReFrames        : 5 frames
Muxing mode                      : Container profile=Unknown@3.0
Codec ID                         : V_MPEG4/ISO/AVC
Duration                         : 23mn 35s
Bit rate                         : 1 584 Kbps
Nominal bit rate                 : 2 022 Kbps
Width                            : 640 pixels
Height                           : 480 pixels
Display aspect ratio             : 4:3
Frame rate                       : 29.970 fps
Resolution                       : 8 bits
Colorimetry                      : 4:2:0
Scan type                        : Progressive
Bits/(Pixel*Frame)               : 0.172
Stream size                      : 267 MiB (79%)
Writing library                  : x264 core 68 r1183M f21daff

Audio #1
ID                               : 2
Format                           : AC-3
Format/Info                      : Audio Coding 3
Codec ID                         : A_AC3
Duration                         : 23mn 36s
Bit rate mode                    : Constant
Bit rate                         : 192 Kbps
Channel(s)                       : 2 channels
Channel positions                : L R
Sampling rate                    : 48.0 KHz
Stream size                      : 32.4 MiB (10%)
Language                         : English

Audio #2
ID                               : 3
Format                           : AC-3
Format/Info                      : Audio Coding 3
Codec ID                         : A_AC3
Duration                         : 23mn 36s
Bit rate mode                    : Constant
Bit rate                         : 192 Kbps
Channel(s)                       : 2 channels
Channel positions                : L R
Sampling rate                    : 48.0 KHz
Stream size                      : 32.4 MiB (10%)
Language                         : Japanese

Text #1
ID                               : 4
Format                           : UTF-8
Codec ID                         : S_TEXT/UTF8
Codec ID/Info                    : UTF-8 Plain Text
Language                         : English

Text #2
ID                               : 5
Format                           : UTF-8
Codec ID                         : S_TEXT/UTF8
Codec ID/Info                    : UTF-8 Plain Text
Language                         : Japanese

Text #3
ID                               : 6
Format                           : VobSub
Codec ID                         : S_VOBSUB
Codec ID/Info                    : The same subtitle format used on DVDs
Language                         : English

Text #4
ID                               : 7
Format                           : VobSub
Codec ID                         : S_VOBSUB
Codec ID/Info                    : The same subtitle format used on DVDs
Language                         : Japanese